<svg xmlns="http://www.w3.org/2000/svg" width="620" height="405" viewBox="0 0 599 405" fill="none">
    <path d="M0.666667 357.702C0.666667 360.647 3.05448 363.035 6 363.035C8.94552 363.035 11.3333 360.647 11.3333 357.702C11.3333 354.756 8.94552 352.369 6 352.369C3.05448 352.369 0.666667 354.756 0.666667 357.702ZM417.067 317.618C417.067 320.564 419.454 322.952 422.4 322.952C425.346 322.952 427.733 320.564 427.733 317.618C427.733 314.673 425.346 312.285 422.4 312.285C419.454 312.285 417.067 314.673 417.067 317.618ZM567.842 399C567.842 401.946 570.229 404.333 573.175 404.333C576.12 404.333 578.508 401.946 578.508 399C578.508 396.054 576.12 393.667 573.175 393.667C570.229 393.667 567.842 396.054 567.842 399ZM6.7729 358.336C55.511 298.97 148.695 209.869 269.78 135.616C390.865 61.3627 539.78 2 700 2V0C539.293 0 390.015 59.5379 268.735 133.911C147.455 208.284 54.1025 297.533 5.2271 357.067L6.7729 358.336ZM423.398 317.553C419.96 264.928 429.685 185.995 469.982 120.255C510.238 54.581 581.044 2 700 2V0C580.329 0 508.887 52.9585 468.277 119.209C427.707 185.394 417.945 264.769 421.402 317.684L423.398 317.553ZM574.141 398.741C556.378 332.475 541.416 233.127 554.187 150.403C560.572 109.043 573.874 71.9382 597.128 45.1873C620.349 18.4736 653.566 2 700 2V0C653.03 0 619.247 16.6931 595.618 43.8752C572.022 71.0202 558.626 108.54 552.21 150.097C539.38 233.206 554.41 332.858 572.209 399.259L574.141 398.741Z" fill="url(#paint0_linear_308_113)"/>
    <defs>
        <linearGradient id="paint0_linear_308_113" x1="586.5" y1="0.999976" x2="492.5" y2="304" gradientUnits="userSpaceOnUse">
            <stop stop-color="#F24E91"/>
            <stop offset="1" stop-color="#F2A33A"/>
        </linearGradient>
    </defs>
</svg>