<svg xmlns="http://www.w3.org/2000/svg" width="76" height="24" viewBox="0 0 76 24" fill="none">
    <path d="M26.9703 20.8205C27.1351 20.3771 27.6216 20.1652 28.0646 20.3153C28.4959 20.4614 28.9364 20.569 29.3983 20.569C30.0351 20.569 30.5809 20.449 31.0357 20.209C31.9176 19.7961 32.2442 18.7464 32.6186 17.9108L28.1891 5.92646C28.0347 5.50873 28.3391 5.06313 28.7788 5.06313H31.4157C31.7758 5.06313 32.0958 5.29605 32.2112 5.64212L34.5289 12.5945L36.8466 5.64212C36.9619 5.29605 37.2819 5.06313 37.642 5.06313H40.1109C40.5518 5.06313 40.8562 5.51098 40.6995 5.92914L35.7024 19.2676C35.1202 20.7813 34.356 21.9442 33.41 22.7564C32.4639 23.5871 31.2176 24.0024 29.6712 24.0024C28.7596 24.0024 27.8678 23.8333 27.0119 23.539C26.4873 23.3586 26.2483 22.7624 26.4438 22.2367L26.9703 20.8205Z" fill="#1B9684"/>
    <path d="M22.8318 16.7756C21.8685 17.753 20.6454 18.0276 19.2701 18.0216C16.8259 18.0109 14.7939 16.7956 13.9897 14.4497C13.3825 12.6785 13.3696 10.5429 13.9897 8.77346C14.8045 6.44851 16.8239 5.06313 19.284 5.06313C20.6056 5.06313 21.8402 5.25298 22.8318 6.143V5.9151C22.8318 5.44457 23.2077 5.06313 23.6715 5.06313H26.6608V18.0216H23.6715C23.2077 18.0216 22.8318 17.6402 22.8318 17.1696V16.7756ZM22.3133 13.979C22.8045 13.3329 23.0501 12.5207 23.0501 11.5424C23.0501 10.4348 22.7772 9.5949 22.2314 9.02266C21.1632 7.86406 19.1171 7.8455 18.1378 9.13341C17.1397 10.4578 17.1653 12.6916 18.1651 14.0067C19.1662 15.2856 21.3307 15.2713 22.3133 13.979Z" fill="#1B9684"/>
    <path d="M6.81595 0.0791016H3.2808C2.34024 0.0791016 1.86997 0.0791016 1.51072 0.26482C1.19472 0.428182 0.937805 0.688852 0.776794 1.00947C0.59375 1.37396 0.59375 1.85111 0.59375 2.80541V3.40178H6.48846C7.36176 3.40178 8.03492 3.63253 8.50795 4.09401C8.56935 4.14939 8.62692 4.20679 8.68065 4.2662C9.05674 4.68211 9.24479 5.19696 9.24479 5.81073C9.24479 5.85688 9.2439 5.90256 9.24212 5.94777C9.21547 6.62593 8.98894 7.19864 8.56253 7.66589C8.50795 7.7282 8.44953 7.7866 8.38728 7.84111C7.95148 8.2227 7.32764 8.4135 6.51575 8.4135H0.59375V15.2953C0.59375 16.2496 0.59375 16.7267 0.776794 17.0912C0.937805 17.4118 1.19472 17.6725 1.51072 17.8359C1.86997 18.0216 2.34024 18.0216 3.2808 18.0216H4.24016V11.5977H6.89782C7.8075 11.5977 8.6353 11.4685 9.38124 11.2101C10.1454 10.9517 10.8003 10.5732 11.3461 10.0748C11.892 9.55798 12.3104 8.92113 12.6015 8.1643C12.9108 7.389 13.0654 6.50296 13.0654 5.50615C13.0654 4.67548 12.9199 3.92788 12.6288 3.26334C12.3377 2.5988 11.9192 2.03579 11.3734 1.57431C10.8276 1.09437 10.1636 0.725179 9.38124 0.466748C8.61711 0.208317 7.76201 0.0791016 6.81595 0.0791016Z" fill="#1B9684"/>
    <path d="M61.6281 5.95247C61.4512 5.531 61.756 5.06315 62.2075 5.06315H64.8798C65.2277 5.06315 65.5396 5.28088 65.664 5.61059L67.9955 11.7916L70.3009 5.61346C70.4245 5.28224 70.7371 5.06315 71.0862 5.06315H73.5888C74.0413 5.06315 74.3461 5.53285 74.1673 5.95458L69.2237 17.617C69.0912 17.9297 68.7878 18.1324 68.4523 18.1324H67.2952C66.9586 18.1324 66.6546 17.9284 66.5227 17.6142L61.6281 5.95247Z" fill="#697583"/>
    <path d="M54.9148 14.9481C55.3878 14.9481 55.7972 14.8558 56.1429 14.6712C56.5067 14.4866 56.8069 14.2467 57.0434 13.9513C57.2982 13.6375 57.4801 13.2776 57.5893 12.8715C57.7166 12.4469 57.7803 12.0039 57.7803 11.5424C57.7803 11.0809 57.7166 10.6471 57.5893 10.241C57.4801 9.81643 57.2982 9.45648 57.0434 9.16113C56.8069 8.84732 56.5067 8.59812 56.1429 8.41352C55.7972 8.22893 55.3878 8.13663 54.9148 8.13663C54.4418 8.13663 54.0233 8.22893 53.6594 8.41352C53.3138 8.59812 53.0136 8.84732 52.7589 9.16113C52.5223 9.45648 52.3404 9.81643 52.2131 10.241C52.0857 10.6471 52.022 11.0809 52.022 11.5424C52.022 12.0039 52.0857 12.4469 52.2131 12.8715C52.3404 13.2776 52.5223 13.6375 52.7589 13.9513C53.0136 14.2467 53.3138 14.4866 53.6594 14.6712C54.0233 14.8558 54.4418 14.9481 54.9148 14.9481ZM54.9148 18.437C53.8778 18.437 52.9408 18.2616 52.1039 17.9109C51.2852 17.5417 50.5756 17.0525 49.9753 16.4433C49.3931 15.8157 48.9473 15.0866 48.638 14.2559C48.3287 13.4068 48.1741 12.5023 48.1741 11.5424C48.1741 10.5825 48.3287 9.68722 48.638 8.85655C48.9473 8.02588 49.3931 7.29673 49.9753 6.66911C50.5756 6.0415 51.2852 5.55232 52.1039 5.20159C52.9408 4.83241 53.8778 4.64781 54.9148 4.64781C55.9518 4.64781 56.8797 4.83241 57.6984 5.20159C58.5353 5.55232 59.2449 6.0415 59.8271 6.66911C60.4275 7.29673 60.8823 8.02588 61.1916 8.85655C61.5009 9.68722 61.6555 10.5825 61.6555 11.5424C61.6555 12.5023 61.5009 13.4068 61.1916 14.2559C60.8823 15.0866 60.4275 15.8157 59.8271 16.4433C59.2449 17.0525 58.5353 17.5417 57.6984 17.9109C56.8797 18.2616 55.9518 18.437 54.9148 18.437Z" fill="#697583"/>
    <path d="M42.4268 1.70638C42.4268 0.765319 43.1787 0.00244141 44.1062 0.00244141H46.4657V18.0216H44.1062C43.1787 18.0216 42.4268 17.2587 42.4268 16.3177V1.70638Z" fill="#697583"/>
    <ellipse cx="6.65272" cy="5.91889" rx="1.15663" ry="1.17353" fill="#FA8231"/>
</svg>