<svg xmlns="http://www.w3.org/2000/svg" width="132" height="132" viewBox="0 0 132 132" fill="none">
    <g clip-path="url(#clip0_838_11237)">
        <path d="M109.738 109.753C133.902 85.5895 133.902 46.4124 109.738 22.2487C85.5744 -1.91494 46.3974 -1.91495 22.2337 22.2487C-1.93001 46.4124 -1.93001 85.5895 22.2337 109.753C46.3974 133.917 85.5744 133.917 109.738 109.753Z" fill="#4FBD64"/>
        <path fill-rule="evenodd" clip-rule="evenodd" d="M49.2126 68.1303L59.4266 77.51C60.9165 78.8816 63.2226 78.8086 64.6238 77.3638L82.8458 59.9174C84.3279 58.4922 84.3728 56.1343 82.9471 54.6513C81.5214 53.1707 79.1647 53.1243 77.6826 54.5495L61.8988 69.6617L54.2585 62.6458C52.7449 61.2531 50.3867 61.3509 48.9932 62.866C47.6 64.3796 47.6982 66.7363 49.2126 68.1303ZM65.9998 30.1367C85.8073 30.1367 101.864 46.1933 101.864 66.0008C101.864 85.8082 85.8073 101.865 65.9998 101.865C46.1923 101.865 30.1357 85.8082 30.1357 66.0008C30.1357 46.1933 46.1923 30.1367 65.9998 30.1367Z" fill="white"/>
    </g>
    <defs>
        <clipPath id="clip0_838_11237">
            <rect width="132" height="132" fill="white" transform="translate(0 0.000976562)"/>
        </clipPath>
    </defs>
</svg>