<svg width="349" height="196" viewBox="0 0 349 196" fill="none" xmlns="http://www.w3.org/2000/svg">
    <rect width="349" height="196" rx="12" fill="#F2F3F7"/>
    <path d="M141.486 72.827L136.873 84.258C136.186 85.9632 135.486 86.3782 134.201 85.8622C133.569 85.6154 133.208 85.2676 133.073 84.7965C132.938 84.3141 133.039 83.6747 133.366 82.8558L137.979 71.4247L134.415 70L129.622 81.8798C128.991 83.4391 128.946 84.8077 129.487 85.9519C130.04 87.141 131.224 88.1058 133.005 88.8237C134.066 89.25 135.035 89.4632 135.904 89.4632C136.501 89.4632 137.054 89.3622 137.561 89.1603C138.734 88.6891 139.648 87.6683 140.268 86.1314L145.061 74.2516L141.486 72.827Z"
          fill="#BAC0C6" fill-opacity="0.6"/>
    <path d="M129.161 110.059C128.609 108.859 127.425 107.894 125.643 107.176C123.861 106.47 122.327 106.357 121.098 106.84C119.914 107.311 119.001 108.332 118.369 109.891L113.61 121.782L117.185 123.196L121.764 111.742C122.091 110.912 122.463 110.385 122.903 110.138C123.32 109.891 123.827 109.891 124.459 110.138C125.744 110.643 125.959 111.428 125.282 113.133L120.704 124.587L124.278 126L129.037 114.109C129.635 112.561 129.68 111.204 129.161 110.059Z"
          fill="#BAC0C6" fill-opacity="0.6"/>
    <path d="M142.592 101.736C143.077 101.601 143.72 101.702 144.543 102.027L156.034 106.615L157.466 103.07L145.535 98.3029C143.968 97.6747 142.592 97.6298 141.442 98.1683C140.246 98.7179 139.277 99.8958 138.555 101.668C137.145 105.168 138.047 107.603 141.261 108.881L153.204 113.649L154.636 110.104L143.145 105.516C142.265 105.168 141.746 104.82 141.498 104.405C141.25 104.002 141.261 103.519 141.532 102.857C141.78 102.229 142.13 101.859 142.592 101.736Z"
          fill="#BAC0C6" fill-opacity="0.6"/>
    <path d="M120.444 89.8109C119.97 88.633 118.944 87.7244 117.376 87.0962L105.423 82.3622L104.002 85.9183L115.516 90.4728C116.35 90.7981 116.88 91.1683 117.128 91.6058C117.376 92.0209 117.376 92.5257 117.128 93.1539C116.869 93.8157 116.531 94.1747 116.08 94.2981C115.617 94.4215 114.997 94.3205 114.117 93.9728L102.604 89.4071L101.183 92.9632L113.136 97.6971C113.971 98.0337 114.76 98.1907 115.493 98.1907C116.113 98.1907 116.688 98.0673 117.219 97.8318C118.425 97.2821 119.395 96.1042 120.105 94.3205C120.816 92.5481 120.929 91.0337 120.444 89.8109Z"
          fill="#BAC0C6" fill-opacity="0.6"/>
    <path d="M155.819 88.7564L144.43 93.5914C142.738 94.3093 141.937 94.1186 141.396 92.851C141.126 92.234 141.114 91.7292 141.351 91.3029C141.599 90.8654 142.118 90.484 142.941 90.1362L154.331 85.3013L152.82 81.7901L141.001 86.8045C139.457 87.4664 138.442 88.3975 138.002 89.5866C137.551 90.8205 137.697 92.335 138.453 94.0962C139.208 95.8574 140.212 97.0128 141.43 97.5289C141.926 97.742 142.467 97.843 143.043 97.843C143.798 97.843 144.621 97.6523 145.501 97.2821L157.331 92.2564L155.819 88.7564Z"
          fill="#BAC0C6" fill-opacity="0.6"/>
    <path d="M120.196 101.893C119.44 100.131 118.436 98.976 117.218 98.46C116.046 97.9552 114.67 98.0337 113.125 98.6955L101.307 103.766L102.829 107.277L114.208 102.397C115.831 101.702 116.722 101.915 117.252 103.149C117.805 104.417 117.399 105.123 115.707 105.841L104.329 110.721L105.851 114.232L117.658 109.173C119.192 108.522 120.196 107.591 120.635 106.413C121.098 105.168 120.951 103.654 120.196 101.893Z"
          fill="#BAC0C6" fill-opacity="0.6"/>
    <path d="M134.505 110.014C135.125 109.745 135.632 109.734 136.061 109.97C136.501 110.216 136.884 110.732 137.234 111.551L142.094 122.881L145.624 121.378L140.572 109.611C139.906 108.074 138.97 107.064 137.775 106.627C136.534 106.178 135.012 106.324 133.242 107.075C131.471 107.827 130.31 108.825 129.791 110.037C129.295 111.192 129.374 112.561 130.028 114.087L135.091 125.865L138.621 124.362L133.76 113.032C133.039 111.349 133.23 110.553 134.505 110.014Z"
          fill="#BAC0C6" fill-opacity="0.6"/>
    <path d="M128.63 81.8911L123.533 70.1347L120.003 71.6491L124.898 82.968C125.247 83.7869 125.36 84.4151 125.236 84.9087C125.112 85.3799 124.751 85.7388 124.131 85.9969C123.477 86.2773 122.981 86.2997 122.575 86.0642C122.157 85.8286 121.797 85.3126 121.424 84.4488L116.541 73.1299L113.012 74.6443L118.098 86.4007C118.763 87.9263 119.688 88.9247 120.872 89.3622C121.345 89.5417 121.853 89.6203 122.405 89.6203C123.308 89.6203 124.311 89.3847 125.416 88.9135C127.187 88.1619 128.348 87.1635 128.867 85.952C129.375 84.7965 129.296 83.4279 128.63 81.8911Z"
          fill="#BAC0C6" fill-opacity="0.6"/>
    <path d="M175.565 97.6905C174.197 96.3428 173.506 94.4022 173.506 91.8956V82.3003H177.489V91.7473C177.489 94.82 178.762 96.3563 181.323 96.3563C182.569 96.3563 183.517 95.9789 184.181 95.2377C184.832 94.4965 185.17 93.3375 185.17 91.7473V82.3003H189.113V91.8956C189.113 94.4157 188.422 96.3428 187.053 97.7039C185.685 99.0651 183.761 99.7389 181.309 99.7389C178.857 99.7389 176.933 99.0516 175.565 97.6905Z"
          fill="#BAC0C6" fill-opacity="0.6"/>
    <path d="M213.742 82.2864V99.4285H210.463L201.874 89.0247V99.4285H197.932V82.2864H201.224L209.786 92.6903V82.2864H213.742Z"
          fill="#BAC0C6" fill-opacity="0.6"/>
    <path d="M222.751 82.2864H226.734V99.4285H222.751V82.2864Z" fill="#BAC0C6" fill-opacity="0.6"/>
    <path d="M239.318 85.5208H233.805V82.2864H248.815V85.5208H243.301V99.4285H239.318V85.5208Z" fill="#BAC0C6"
          fill-opacity="0.6"/>
    <path d="M174.657 113.511C174.183 113.377 173.804 113.201 173.506 112.972L174.007 111.854C174.278 112.056 174.617 112.218 174.996 112.339C175.375 112.46 175.755 112.528 176.134 112.528C176.554 112.528 176.866 112.46 177.069 112.339C177.272 112.218 177.367 112.043 177.367 111.84C177.367 111.692 177.313 111.557 177.191 111.463C177.069 111.369 176.92 111.288 176.73 111.22C176.54 111.153 176.297 111.086 175.971 111.018C175.484 110.897 175.077 110.789 174.766 110.668C174.454 110.547 174.183 110.371 173.966 110.115C173.736 109.859 173.628 109.522 173.628 109.091C173.628 108.714 173.723 108.377 173.926 108.08C174.129 107.784 174.427 107.541 174.847 107.366C175.253 107.191 175.755 107.097 176.337 107.097C176.744 107.097 177.15 107.151 177.543 107.245C177.936 107.339 178.275 107.487 178.573 107.663L178.112 108.795C177.516 108.458 176.92 108.296 176.324 108.296C175.904 108.296 175.592 108.363 175.403 108.498C175.199 108.633 175.104 108.808 175.104 109.024C175.104 109.239 175.213 109.401 175.443 109.509C175.673 109.617 176.026 109.725 176.5 109.819C176.988 109.94 177.394 110.048 177.706 110.169C178.017 110.291 178.288 110.466 178.505 110.722C178.735 110.978 178.844 111.315 178.844 111.733C178.844 112.096 178.735 112.433 178.532 112.73C178.329 113.026 178.017 113.269 177.611 113.444C177.204 113.619 176.703 113.714 176.107 113.714C175.633 113.714 175.132 113.646 174.657 113.511Z"
          fill="#BAC0C6" fill-opacity="0.6"/>
    <path d="M183.992 108.404H181.933V107.191H187.541V108.404H185.482V113.606H183.992V108.404Z" fill="#BAC0C6"
          fill-opacity="0.6"/>
    <path d="M191.822 112.959C191.307 112.447 191.05 111.733 191.05 110.789V107.204H192.54V110.735C192.54 111.881 193.014 112.46 193.976 112.46C194.437 112.46 194.802 112.326 195.046 112.043C195.29 111.76 195.412 111.328 195.412 110.735V107.204H196.889V110.789C196.889 111.733 196.631 112.447 196.117 112.959C195.602 113.471 194.884 113.714 193.963 113.714C193.041 113.714 192.323 113.458 191.822 112.959Z"
          fill="#BAC0C6" fill-opacity="0.6"/>
    <path d="M201.116 107.191H204.042C204.747 107.191 205.357 107.326 205.898 107.595C206.44 107.865 206.847 108.229 207.145 108.714C207.443 109.199 207.592 109.751 207.592 110.398C207.592 111.045 207.443 111.598 207.145 112.083C206.847 112.568 206.427 112.945 205.898 113.201C205.357 113.471 204.747 113.606 204.042 113.606H201.116V107.191ZM203.975 112.393C204.625 112.393 205.126 112.218 205.519 111.854C205.898 111.503 206.088 111.018 206.088 110.398C206.088 109.792 205.898 109.307 205.519 108.943C205.14 108.593 204.625 108.404 203.975 108.404H202.606V112.379H203.975V112.393Z"
          fill="#BAC0C6" fill-opacity="0.6"/>
    <path d="M214.569 111.342V113.606H213.079V111.315L210.586 107.191H212.171L213.892 110.035L215.612 107.191H217.075L214.569 111.342Z"
          fill="#BAC0C6" fill-opacity="0.6"/>
</svg>
